<svg width="86" height="85" viewBox="0 0 86 85" fill="none" xmlns="http://www.w3.org/2000/svg">
<mask id="mask0" mask-type="alpha" maskUnits="userSpaceOnUse" x="0" y="3" width="86" height="82">
<path d="M8.72414 75.8969L1 3.96582H85L76.3103 75.8969L43 84.1038L8.72414 75.8969Z" fill="#C4C4C4" stroke="black"/>
</mask>
<g mask="url(#mask0)">
<rect x="-18.3105" y="-2.7926" width="114.897" height="24.1379" fill="#FF6B00"/>
<rect x="-18.3105" y="21.3455" width="114.897" height="65.6552" fill="#4F4F4F"/>
</g>
<path d="M14.9094 18V6.66H17.7794C18.2741 6.66 18.7314 6.702 19.1514 6.786C19.5714 6.87 19.9401 7.01933 20.2574 7.234C20.5841 7.44867 20.8314 7.74733 20.9994 8.13C21.1767 8.50333 21.2654 8.99333 21.2654 9.6C21.2654 10.0573 21.2001 10.4493 21.0694 10.776C20.9387 11.0933 20.7521 11.3453 20.5094 11.532C20.2667 11.7187 19.9681 11.8447 19.6134 11.91C20.0521 11.9753 20.4207 12.1247 20.7194 12.358C21.0181 12.5913 21.2421 12.8993 21.3914 13.282C21.5407 13.6647 21.6154 14.1267 21.6154 14.668C21.6154 15.2373 21.5407 15.732 21.3914 16.152C21.2514 16.572 21.0414 16.9173 20.7614 17.188C20.4814 17.4587 20.1361 17.664 19.7254 17.804C19.3147 17.9347 18.8387 18 18.2974 18H14.9094ZM17.2194 16.376H17.8634C18.4421 16.376 18.8387 16.2313 19.0534 15.942C19.2774 15.6527 19.3894 15.2187 19.3894 14.64C19.3894 14.192 19.3381 13.8373 19.2354 13.576C19.1327 13.3053 18.9647 13.1093 18.7314 12.988C18.5074 12.8573 18.2041 12.792 17.8214 12.792H17.2194V16.376ZM17.2194 11.238H17.7934C18.1947 11.238 18.4981 11.182 18.7034 11.07C18.9087 10.9487 19.0487 10.7713 19.1234 10.538C19.2074 10.2953 19.2494 10.0013 19.2494 9.656C19.2494 9.31067 19.1887 9.03533 19.0674 8.83C18.9554 8.61533 18.7781 8.46133 18.5354 8.368C18.3021 8.27467 18.0034 8.228 17.6394 8.228H17.2194V11.238ZM26.3505 18.154C25.4918 18.154 24.8245 18.0093 24.3485 17.72C23.8725 17.4213 23.5365 16.9967 23.3405 16.446C23.1538 15.886 23.0605 15.2093 23.0605 14.416V6.66H25.3425V14.738C25.3425 15.018 25.3611 15.2933 25.3985 15.564C25.4451 15.8347 25.5385 16.054 25.6785 16.222C25.8278 16.39 26.0518 16.474 26.3505 16.474C26.6585 16.474 26.8825 16.39 27.0225 16.222C27.1718 16.054 27.2651 15.8347 27.3025 15.564C27.3398 15.2933 27.3585 15.018 27.3585 14.738V6.66H29.6405V14.416C29.6405 15.2093 29.5425 15.886 29.3465 16.446C29.1598 16.9967 28.8285 17.4213 28.3525 17.72C27.8765 18.0093 27.2091 18.154 26.3505 18.154ZM32.9462 18V13.506L30.7342 6.66H32.9042L34.1222 10.65L35.2562 6.66H37.3562L35.1722 13.506V18H32.9462ZM42.1215 18L42.3175 6.66H44.7675L46.1675 13.814L47.6655 6.66H50.0315L50.2275 18H48.5475L48.3655 10.314L46.9235 18H45.4815L43.9695 10.258L43.8155 18H42.1215ZM55.2718 18.154C54.4412 18.154 53.7832 18.0047 53.2978 17.706C52.8125 17.4073 52.4625 16.9827 52.2478 16.432C52.0425 15.872 51.9398 15.2047 51.9398 14.43V10.202C51.9398 9.42733 52.0425 8.76467 52.2478 8.214C52.4625 7.66333 52.8125 7.24333 53.2978 6.954C53.7832 6.66467 54.4412 6.52 55.2718 6.52C56.1118 6.52 56.7745 6.66933 57.2598 6.968C57.7545 7.25733 58.1045 7.67733 58.3098 8.228C58.5245 8.76933 58.6318 9.42733 58.6318 10.202V14.43C58.6318 15.2047 58.5245 15.872 58.3098 16.432C58.1045 16.9827 57.7545 17.4073 57.2598 17.706C56.7745 18.0047 56.1118 18.154 55.2718 18.154ZM55.2718 16.488C55.5705 16.488 55.7898 16.4227 55.9298 16.292C56.0698 16.152 56.1632 15.97 56.2098 15.746C56.2565 15.5127 56.2798 15.2653 56.2798 15.004V9.642C56.2798 9.38067 56.2565 9.138 56.2098 8.914C56.1632 8.69 56.0698 8.51267 55.9298 8.382C55.7898 8.242 55.5705 8.172 55.2718 8.172C54.9918 8.172 54.7818 8.242 54.6418 8.382C54.5018 8.51267 54.4085 8.69 54.3618 8.914C54.3152 9.138 54.2918 9.38067 54.2918 9.642V15.004C54.2918 15.2653 54.3105 15.5127 54.3478 15.746C54.3945 15.97 54.4878 16.152 54.6278 16.292C54.7678 16.4227 54.9825 16.488 55.2718 16.488ZM60.3842 18V6.66H63.3242C64.0896 6.66 64.7429 6.74867 65.2842 6.926C65.8349 7.094 66.2549 7.39733 66.5442 7.836C66.8429 8.27467 66.9922 8.88133 66.9922 9.656C66.9922 10.1227 66.9502 10.538 66.8662 10.902C66.7916 11.2567 66.6516 11.5693 66.4462 11.84C66.2502 12.1013 65.9702 12.3113 65.6062 12.47L67.1742 18H64.8082L63.5062 12.862H62.6942V18H60.3842ZM62.6942 11.49H63.3662C63.7396 11.49 64.0336 11.4293 64.2482 11.308C64.4629 11.1867 64.6122 11.0047 64.6962 10.762C64.7896 10.51 64.8362 10.202 64.8362 9.838C64.8362 9.31533 64.7382 8.91867 64.5422 8.648C64.3556 8.368 64.0009 8.228 63.4782 8.228H62.6942V11.49ZM68.7153 18V6.66H73.6573V8.256H71.0253V11.266H73.0553V12.876H71.0253V16.432H73.6853V18H68.7153Z" fill="white"/>
<path d="M27.3307 47.264C26.1307 47.264 25.1307 47.048 24.3307 46.616C23.5307 46.168 22.9227 45.504 22.5067 44.624C22.1067 43.728 21.8747 42.592 21.8107 41.216L25.2187 40.64C25.2507 41.44 25.3307 42.112 25.4587 42.656C25.6027 43.184 25.8107 43.584 26.0827 43.856C26.3707 44.112 26.7227 44.24 27.1387 44.24C27.6507 44.24 27.9947 44.08 28.1707 43.76C28.3627 43.44 28.4587 43.072 28.4587 42.656C28.4587 41.84 28.2587 41.16 27.8587 40.616C27.4747 40.056 26.9627 39.496 26.3227 38.936L24.3067 37.184C23.5867 36.576 22.9947 35.888 22.5307 35.12C22.0827 34.352 21.8587 33.408 21.8587 32.288C21.8587 30.688 22.3227 29.464 23.2507 28.616C24.1947 27.752 25.4827 27.32 27.1147 27.32C28.0907 27.32 28.8907 27.48 29.5147 27.8C30.1387 28.12 30.6187 28.552 30.9547 29.096C31.3067 29.624 31.5467 30.208 31.6747 30.848C31.8187 31.472 31.9067 32.096 31.9387 32.72L28.5547 33.224C28.5227 32.632 28.4667 32.112 28.3867 31.664C28.3227 31.216 28.1787 30.864 27.9547 30.608C27.7467 30.352 27.4267 30.224 26.9947 30.224C26.5307 30.224 26.1867 30.4 25.9627 30.752C25.7387 31.088 25.6267 31.464 25.6267 31.88C25.6267 32.568 25.7787 33.136 26.0827 33.584C26.4027 34.016 26.8347 34.472 27.3787 34.952L29.3467 36.68C30.1627 37.384 30.8587 38.192 31.4347 39.104C32.0267 40 32.3227 41.112 32.3227 42.44C32.3227 43.352 32.1147 44.176 31.6987 44.912C31.2827 45.648 30.6987 46.224 29.9467 46.64C29.2107 47.056 28.3387 47.264 27.3307 47.264ZM32.3473 47L36.1153 27.56H40.5073L44.2513 47H40.5793L39.8833 42.728H36.8113L36.0673 47H32.3473ZM37.1713 40.304H39.4993L38.3233 32.456L37.1713 40.304ZM47.2948 47L43.5988 27.56H47.0308L49.3348 41L51.4948 27.56H55.0708L51.3748 47H47.2948ZM56.1138 47V27.56H64.5858V30.296H60.0738V35.456H63.5538V38.216H60.0738V44.312H64.6338V47H56.1138ZM18.3515 70L18.6875 50.56H22.8875L25.2875 62.824L27.8555 50.56H31.9115L32.2475 70H29.3675L29.0555 56.824L26.5835 70H24.1115L21.5195 56.728L21.2555 70H18.3515ZM39.575 70.264C38.151 70.264 37.023 70.008 36.191 69.496C35.359 68.984 34.759 68.256 34.391 67.312C34.039 66.352 33.863 65.208 33.863 63.88V56.632C33.863 55.304 34.039 54.168 34.391 53.224C34.759 52.28 35.359 51.56 36.191 51.064C37.023 50.568 38.151 50.32 39.575 50.32C41.015 50.32 42.151 50.576 42.983 51.088C43.831 51.584 44.431 52.304 44.783 53.248C45.151 54.176 45.335 55.304 45.335 56.632V63.88C45.335 65.208 45.151 66.352 44.783 67.312C44.431 68.256 43.831 68.984 42.983 69.496C42.151 70.008 41.015 70.264 39.575 70.264ZM39.575 67.408C40.087 67.408 40.463 67.296 40.703 67.072C40.943 66.832 41.103 66.52 41.183 66.136C41.263 65.736 41.303 65.312 41.303 64.864V55.672C41.303 55.224 41.263 54.808 41.183 54.424C41.103 54.04 40.943 53.736 40.703 53.512C40.463 53.272 40.087 53.152 39.575 53.152C39.095 53.152 38.735 53.272 38.495 53.512C38.255 53.736 38.095 54.04 38.015 54.424C37.935 54.808 37.895 55.224 37.895 55.672V64.864C37.895 65.312 37.927 65.736 37.991 66.136C38.071 66.52 38.231 66.832 38.471 67.072C38.711 67.296 39.079 67.408 39.575 67.408ZM47.0192 70V50.56H52.0592C53.3712 50.56 54.4912 50.712 55.4192 51.016C56.3632 51.304 57.0832 51.824 57.5792 52.576C58.0912 53.328 58.3472 54.368 58.3472 55.696C58.3472 56.496 58.2752 57.208 58.1312 57.832C58.0032 58.44 57.7632 58.976 57.4112 59.44C57.0752 59.888 56.5952 60.248 55.9712 60.52L58.6592 70H54.6032L52.3712 61.192H50.9792V70H47.0192ZM50.9792 58.84H52.1312C52.7712 58.84 53.2752 58.736 53.6432 58.528C54.0112 58.32 54.2672 58.008 54.4112 57.592C54.5712 57.16 54.6512 56.632 54.6512 56.008C54.6512 55.112 54.4832 54.432 54.1472 53.968C53.8272 53.488 53.2192 53.248 52.3232 53.248H50.9792V58.84ZM59.981 70V50.56H68.453V53.296H63.941V58.456H67.421V61.216H63.941V67.312H68.501V70H59.981Z" fill="white"/>
</svg>
