<svg width="464" height="122" viewBox="0 0 464 122" fill="none" xmlns="http://www.w3.org/2000/svg">
<path d="M118.752 34.8572L100.121 103.351L77.6587 34.8572H59.3758L36.5658 103.526L17.9346 34.8572H0L26.2925 122H45.9684L68.2561 54.9L89.8473 122H110.045L136.512 34.8572H118.752Z" fill="white"/>
<path d="M153.922 0V19.1714H172.379V0H153.922ZM154.792 34.8572V122H171.334V34.8572H154.792Z" fill="white"/>
<path d="M330.287 34.8572H312.875C289.543 34.8572 272.653 44.9657 264.817 63.2657C256.808 44.9657 239.918 34.8572 216.585 34.8572H199.173V122H215.715V50.5429H217.108C243.226 50.5429 256.459 68.8429 256.459 99.6914V122H273.001V99.6914C273.001 68.8429 286.234 50.5429 312.353 50.5429H313.746V122H330.287V34.8572Z" fill="white"/>
<path d="M370.873 106.314L425.547 50.5429V34.8572H351.894V50.5429H405.175L350.327 106.314V122H426.418V106.314H370.873Z" fill="white"/>
<path d="M445.543 0V19.1714H464V0H445.543ZM446.414 34.8572V122H462.955V34.8572H446.414Z" fill="white"/>
</svg>
